{
  "accessors": [
    {
      "bufferView": 2,
      "componentType": 5126,
      "count": 65533,
      "max": [
        3.329444408416748,
        4.510771751403809,
        2.4343981742858887
      ],
      "min": [
        -3.329444408416748,
        -4.510771751403809,
        -2.4343981742858887
      ],
      "type": "VEC3"
    },
    {
      "bufferView": 2,
      "byteOffset": 786396,
      "componentType": 5126,
      "count": 65533,
      "max": [
        0.999871551990509,
        0.999992311000824,
        0.9999866485595703
      ],
      "min": [
        -0.9998634457588196,
        -1.0,
        -0.9999944567680359
      ],
      "type": "VEC3"
    },
    {
      "bufferView": 1,
      "componentType": 5126,
      "count": 65533,
      "max": [
        0.9604241847991943,
        0.9363147020339966
      ],
      "min": [
        0.007437586784362793,
        0.003065824508666992
      ],
      "type": "VEC2"
    },
    {
      "bufferView": 0,
      "componentType": 5125,
      "count": 177339,
      "type": "SCALAR"
    },
    {
      "bufferView": 2,
      "byteOffset": 1572792,
      "componentType": 5126,
      "count": 37413,
      "max": [
        2.794170379638672,
        3.7747342586517334,
        2.38179349899292
      ],
      "min": [
        -2.466979503631592,
        -4.504472732543945,
        -2.4343180656433105
      ],
      "type": "VEC3"
    },
    {
      "bufferView": 2,
      "byteOffset": 2021748,
      "componentType": 5126,
      "count": 37413,
      "max": [
        0.9999774694442749,
        0.9999983906745911,
        0.9998297691345215
      ],
      "min": [
        -0.9998914003372192,
        -0.9999911189079285,
        -0.9999435544013977
      ],
      "type": "VEC3"
    },
    {
      "bufferView": 1,
      "byteOffset": 524264,
      "componentType": 5126,
      "count": 37413,
      "max": [
        0.948424220085144,
        0.928447961807251
      ],
      "min": [
        0.007437586784362793,
        0.003065824508666992
      ],
      "type": "VEC2"
    },
    {
      "bufferView": 0,
      "byteOffset": 709356,
      "componentType": 5125,
      "count": 56133,
      "type": "SCALAR"
    },
    {
      "bufferView": 3,
      "componentType": 5126,
      "count": 670,
      "max": [
        14.0
      ],
      "min": [
        0.0416666679084301
      ],
      "type": "SCALAR"
    },
    {
      "bufferView": 4,
      "componentType": 5126,
      "count": 670,
      "max": [
        8.361684262167839e-17,
        0.9999960660934448,
        8.361684262167839e-17,
        1.0
      ],
      "min": [
        -8.659559279937574e-17,
        -0.8628826141357422,
        -8.659559279937574e-17,
        -0.4989166557788849
      ],
      "type": "VEC4"
    }
  ],
  "animations": [
    {
      "channels": [
        {
          "sampler": 0,
          "target": {
            "node": 4,
            "path": "rotation"
          }
        }
      ],
      "name": "Take 001",
      "samplers": [
        {
          "input": 8,
          "interpolation": "LINEAR",
          "output": 9
        }
      ]
    }
  ],
  "asset": {
    "extras": {
      "author": "pan.stasian (https://sketchfab.com/pan_stasian)",
      "license": "CC-BY-4.0 (http://creativecommons.org/licenses/by/4.0/)",
      "source": "https://sketchfab.com/3d-models/time-to-get-a-little-wired-0d0e286484ed4d96926ba6e1cc1f4e88",
      "title": "Time to get a little wired"
    },
    "generator": "Sketchfab-12.68.0",
    "version": "2.0"
  },
  "bufferViews": [
    {
      "buffer": 0,
      "byteLength": 933888,
      "name": "floatBufferViews",
      "target": 34963
    },
    {
      "buffer": 0,
      "byteLength": 823568,
      "byteOffset": 933888,
      "byteStride": 8,
      "name": "floatBufferViews",
      "target": 34962
    },
    {
      "buffer": 0,
      "byteLength": 2470704,
      "byteOffset": 1757456,
      "byteStride": 12,
      "name": "floatBufferViews",
      "target": 34962
    },
    {
      "buffer": 0,
      "byteLength": 2680,
      "byteOffset": 4228160,
      "name": "floatBufferViews"
    },
    {
      "buffer": 0,
      "byteLength": 10720,
      "byteOffset": 4230840,
      "byteStride": 16,
      "name": "floatBufferViews"
    }
  ],
  "buffers": [
    {
      "byteLength": 4241560,
      "uri": "scene.bin"
    }
  ],
  "materials": [
    {
      "doubleSided": true,
      "emissiveFactor": [
        1.0,
        0.6112411424450296,
        0.6112411424450296
      ],
      "name": "lambert2",
      "pbrMetallicRoughness": {
        "baseColorFactor": [
          1.0,
          0.6633703930118291,
          0.18272736393587025,
          1.0
        ],
        "roughnessFactor": 0.0
      }
    }
  ],
  "meshes": [
    {
      "name": "body3_lambert2_0",
      "primitives": [
        {
          "attributes": {
            "NORMAL": 1,
            "POSITION": 0,
            "TEXCOORD_0": 2
          },
          "indices": 3,
          "material": 0,
          "mode": 4
        }
      ]
    },
    {
      "name": "body3_lambert2_0",
      "primitives": [
        {
          "attributes": {
            "NORMAL": 5,
            "POSITION": 4,
            "TEXCOORD_0": 6
          },
          "indices": 7,
          "material": 0,
          "mode": 4
        }
      ]
    }
  ],
  "nodes": [
    {
      "children": [
        1
      ],
      "matrix": [
        1.0,
        0.0,
        0.0,
        0.0,
        0.0,
        2.220446049250313e-16,
        -1.0,
        0.0,
        0.0,
        1.0,
        2.220446049250313e-16,
        0.0,
        0.0,
        0.0,
        0.0,
        1.0
      ],
      "name": "Sketchfab_model"
    },
    {
      "children": [
        2
      ],
      "matrix": [
        0.009999999776482582,
        0.0,
        0.0,
        0.0,
        0.0,
        0.0,
        0.009999999776482582,
        0.0,
        0.0,
        -0.009999999776482582,
        0.0,
        0.0,
        0.0,
        0.0,
        0.0,
        1.0
      ],
      "name": "b14504881a42464d8cf11cc64851442a.fbx"
    },
    {
      "children": [
        3
      ],
      "name": "Object_2"
    },
    {
      "children": [
        4
      ],
      "name": "RootNode"
    },
    {
      "children": [
        5,
        6
      ],
      "name": "body3",
      "translation": [
        0.0,
        -2.384185791015625e-07,
        -0.00025975704193115234
      ]
    },
    {
      "mesh": 0,
      "name": "body3_lambert2_0"
    },
    {
      "mesh": 1,
      "name": "body3_lambert2_0"
    }
  ],
  "scene": 0,
  "scenes": [
    {
      "name": "Sketchfab_Scene",
      "nodes": [
        0
      ]
    }
  ]
}
